<svg width="82" height="108" viewBox="0 0 82 108" fill="none" xmlns="http://www.w3.org/2000/svg">
<path d="M2.6902 103.967C2.65221 104.349 2.93119 104.69 3.31351 104.724C15.6561 105.827 28.0738 103.61 39.2781 98.2974C50.6919 92.8851 60.4147 84.4644 67.4014 73.9405C74.3882 63.4166 78.3746 51.1876 78.9323 38.5679C79.4796 26.1798 76.7025 13.8752 70.8951 2.92862C70.7152 2.58954 70.2928 2.46472 69.9556 2.64799C69.6183 2.83126 69.4939 3.25321 69.6737 3.59232C75.3606 14.3169 78.0798 26.3709 77.5436 38.5065C76.9972 50.8738 73.0904 62.8583 66.2434 73.1717C59.3964 83.4851 49.868 91.7374 38.6825 97.0415C27.7065 102.246 15.5422 104.419 3.45108 103.341C3.06876 103.307 2.72819 103.585 2.6902 103.967Z" fill="#C4C4C4" stroke="#FF9F00" stroke-width="5" stroke-miterlimit="1.30541" stroke-linecap="round" stroke-linejoin="round"/>
</svg>
